<mxfile host="app.diagrams.net" modified="2023-05-11T02:35:22.154Z" agent="Mozilla/5.0 (Windows NT 10.0; Win64; x64) AppleWebKit/537.36 (KHTML, like Gecko) Chrome/112.0.0.0 Safari/537.36" etag="lhbdN6Q3H0_gkez50Ypd" version="21.2.1" type="github">
  <diagram name="Page-1" id="XmZhTmgTyoUgcUrgXPM3">
    <mxGraphModel dx="1257" dy="1473" grid="1" gridSize="10" guides="1" tooltips="1" connect="1" arrows="1" fold="1" page="1" pageScale="1" pageWidth="1169" pageHeight="827" math="0" shadow="0">
      <root>
        <mxCell id="0" />
        <mxCell id="1" parent="0" />
        <mxCell id="2kASQM_y_QEqEqbO0Nvf-1" value="" style="rounded=0;whiteSpace=wrap;html=1;spacing=21;fontFamily=Helvetica;" parent="1" vertex="1">
          <mxGeometry x="60" y="200" width="240" height="200" as="geometry" />
        </mxCell>
        <mxCell id="2kASQM_y_QEqEqbO0Nvf-2" value="" style="rounded=0;whiteSpace=wrap;html=1;spacing=21;fontFamily=Helvetica;" parent="1" vertex="1">
          <mxGeometry x="390" y="200" width="240" height="200" as="geometry" />
        </mxCell>
        <mxCell id="2kASQM_y_QEqEqbO0Nvf-3" value="" style="rounded=0;whiteSpace=wrap;html=1;spacing=21;fontFamily=Helvetica;" parent="1" vertex="1">
          <mxGeometry x="390" y="-80" width="240" height="200" as="geometry" />
        </mxCell>
        <mxCell id="2kASQM_y_QEqEqbO0Nvf-4" value="" style="shape=cylinder3;whiteSpace=wrap;html=1;boundedLbl=1;backgroundOutline=1;size=15;spacing=21;fontFamily=Helvetica;" parent="1" vertex="1">
          <mxGeometry x="720" y="200" width="130" height="200" as="geometry" />
        </mxCell>
        <mxCell id="2kASQM_y_QEqEqbO0Nvf-5" value="" style="shape=flexArrow;endArrow=classic;html=1;rounded=0;spacing=21;fontFamily=Helvetica;" parent="1" edge="1">
          <mxGeometry width="50" height="50" relative="1" as="geometry">
            <mxPoint x="310" y="280" as="sourcePoint" />
            <mxPoint x="380" y="280" as="targetPoint" />
          </mxGeometry>
        </mxCell>
        <mxCell id="2kASQM_y_QEqEqbO0Nvf-6" value="" style="shape=flexArrow;endArrow=classic;html=1;rounded=0;spacing=21;fontFamily=Helvetica;" parent="1" edge="1">
          <mxGeometry width="50" height="50" relative="1" as="geometry">
            <mxPoint x="640" y="280" as="sourcePoint" />
            <mxPoint x="710" y="280" as="targetPoint" />
          </mxGeometry>
        </mxCell>
        <mxCell id="2kASQM_y_QEqEqbO0Nvf-7" value="" style="shape=flexArrow;endArrow=classic;html=1;rounded=0;spacing=21;fontFamily=Helvetica;" parent="1" edge="1">
          <mxGeometry width="50" height="50" relative="1" as="geometry">
            <mxPoint x="380" y="340" as="sourcePoint" />
            <mxPoint x="310" y="340" as="targetPoint" />
          </mxGeometry>
        </mxCell>
        <mxCell id="2kASQM_y_QEqEqbO0Nvf-8" value="" style="shape=flexArrow;endArrow=classic;html=1;rounded=0;spacing=21;fontFamily=Helvetica;" parent="1" edge="1">
          <mxGeometry width="50" height="50" relative="1" as="geometry">
            <mxPoint x="710" y="340" as="sourcePoint" />
            <mxPoint x="640" y="340" as="targetPoint" />
          </mxGeometry>
        </mxCell>
        <mxCell id="2kASQM_y_QEqEqbO0Nvf-9" value="" style="shape=flexArrow;endArrow=classic;html=1;rounded=0;spacing=21;fontFamily=Helvetica;" parent="1" edge="1">
          <mxGeometry width="50" height="50" relative="1" as="geometry">
            <mxPoint x="460" y="190" as="sourcePoint" />
            <mxPoint x="460" y="130" as="targetPoint" />
          </mxGeometry>
        </mxCell>
        <mxCell id="2kASQM_y_QEqEqbO0Nvf-11" value="" style="shape=flexArrow;endArrow=classic;html=1;rounded=0;spacing=21;fontFamily=Helvetica;" parent="1" edge="1">
          <mxGeometry width="50" height="50" relative="1" as="geometry">
            <mxPoint x="570" y="130" as="sourcePoint" />
            <mxPoint x="570" y="190" as="targetPoint" />
          </mxGeometry>
        </mxCell>
        <mxCell id="2kASQM_y_QEqEqbO0Nvf-12" value="UPLOAD IMAGE" style="rounded=0;whiteSpace=wrap;html=1;spacing=21;fontFamily=Helvetica;" parent="1" vertex="1">
          <mxGeometry x="70" y="210" width="220" height="30" as="geometry" />
        </mxCell>
        <mxCell id="2kASQM_y_QEqEqbO0Nvf-13" value="CONVERT TO STRING" style="rounded=0;whiteSpace=wrap;html=1;spacing=21;fontFamily=Helvetica;" parent="1" vertex="1">
          <mxGeometry x="70" y="250" width="220" height="30" as="geometry" />
        </mxCell>
        <mxCell id="2kASQM_y_QEqEqbO0Nvf-14" value="COMPRESS STRING" style="rounded=0;whiteSpace=wrap;html=1;spacing=21;fontFamily=Helvetica;" parent="1" vertex="1">
          <mxGeometry x="70" y="290" width="220" height="30" as="geometry" />
        </mxCell>
        <mxCell id="2kASQM_y_QEqEqbO0Nvf-15" value="VIEW IMAGE" style="rounded=0;whiteSpace=wrap;html=1;spacing=21;fontFamily=Helvetica;" parent="1" vertex="1">
          <mxGeometry x="70" y="330" width="220" height="30" as="geometry" />
        </mxCell>
        <mxCell id="2kASQM_y_QEqEqbO0Nvf-16" value="CONVERT TO GRAYSCALE" style="rounded=0;whiteSpace=wrap;html=1;spacing=21;fontFamily=Helvetica;" parent="1" vertex="1">
          <mxGeometry x="400" y="210" width="220" height="30" as="geometry" />
        </mxCell>
        <mxCell id="2kASQM_y_QEqEqbO0Nvf-17" value="STORE AND RETRIEVE IMAGE TO DB" style="rounded=0;whiteSpace=wrap;html=1;spacing=21;fontFamily=Helvetica;" parent="1" vertex="1">
          <mxGeometry x="400" y="290" width="220" height="40" as="geometry" />
        </mxCell>
        <mxCell id="2kASQM_y_QEqEqbO0Nvf-18" value="CONVERT GRAYSCALE TO STRING" style="rounded=0;whiteSpace=wrap;html=1;spacing=21;fontFamily=Helvetica;" parent="1" vertex="1">
          <mxGeometry x="400" y="250" width="220" height="30" as="geometry" />
        </mxCell>
        <mxCell id="2kASQM_y_QEqEqbO0Nvf-20" value="PASS GRAYSCALE THROUGH MODEL" style="rounded=0;whiteSpace=wrap;html=1;spacing=21;fontFamily=Helvetica;" parent="1" vertex="1">
          <mxGeometry x="400" y="340" width="220" height="40" as="geometry" />
        </mxCell>
        <mxCell id="2kASQM_y_QEqEqbO0Nvf-21" value="IMAGE DATA" style="rounded=0;whiteSpace=wrap;html=1;fontFamily=Helvetica;" parent="1" vertex="1">
          <mxGeometry x="727.5" y="250" width="115" height="40" as="geometry" />
        </mxCell>
        <mxCell id="2kASQM_y_QEqEqbO0Nvf-22" value="USER DATA" style="rounded=0;whiteSpace=wrap;html=1;fontFamily=Helvetica;" parent="1" vertex="1">
          <mxGeometry x="727.5" y="310" width="115" height="40" as="geometry" />
        </mxCell>
        <mxCell id="2kASQM_y_QEqEqbO0Nvf-23" value="GENERATOR" style="rounded=0;whiteSpace=wrap;html=1;fontFamily=Helvetica;" parent="1" vertex="1">
          <mxGeometry x="400" y="-60" width="220" height="70" as="geometry" />
        </mxCell>
        <mxCell id="2kASQM_y_QEqEqbO0Nvf-24" value="DISCRIMINATOR" style="rounded=0;whiteSpace=wrap;html=1;fontFamily=Helvetica;" parent="1" vertex="1">
          <mxGeometry x="400" y="30" width="220" height="70" as="geometry" />
        </mxCell>
        <mxCell id="r7mqtAv-C2gGXNPb0Nu0-1" value="" style="rounded=0;whiteSpace=wrap;html=1;fillColor=none;fontFamily=Helvetica;" vertex="1" parent="1">
          <mxGeometry x="40" y="-120" width="850" height="600" as="geometry" />
        </mxCell>
        <mxCell id="r7mqtAv-C2gGXNPb0Nu0-2" value="&lt;h1&gt;Front-end&lt;/h1&gt;" style="text;html=1;strokeColor=none;fillColor=none;spacing=5;spacingTop=-20;whiteSpace=wrap;overflow=hidden;rounded=0;fontFamily=Helvetica;" vertex="1" parent="1">
          <mxGeometry x="120" y="414" width="120" height="40" as="geometry" />
        </mxCell>
        <mxCell id="r7mqtAv-C2gGXNPb0Nu0-3" value="&lt;h1&gt;Logic&lt;/h1&gt;" style="text;html=1;strokeColor=none;fillColor=none;spacing=5;spacingTop=-20;whiteSpace=wrap;overflow=hidden;rounded=0;fontFamily=Helvetica;" vertex="1" parent="1">
          <mxGeometry x="475" y="414" width="70" height="40" as="geometry" />
        </mxCell>
        <mxCell id="r7mqtAv-C2gGXNPb0Nu0-4" value="&lt;h1&gt;Database&lt;/h1&gt;" style="text;html=1;strokeColor=none;fillColor=none;spacing=5;spacingTop=-20;whiteSpace=wrap;overflow=hidden;rounded=0;fontFamily=Helvetica;" vertex="1" parent="1">
          <mxGeometry x="725" y="414" width="120" height="40" as="geometry" />
        </mxCell>
        <mxCell id="r7mqtAv-C2gGXNPb0Nu0-5" value="&lt;h1&gt;Model (GAN)&lt;/h1&gt;" style="text;html=1;strokeColor=none;fillColor=none;spacing=5;spacingTop=-20;whiteSpace=wrap;overflow=hidden;rounded=0;fontFamily=Helvetica;" vertex="1" parent="1">
          <mxGeometry x="640" y="10" width="165" height="40" as="geometry" />
        </mxCell>
      </root>
    </mxGraphModel>
  </diagram>
</mxfile>
